<svg width="16" height="10" viewBox="0 0 16 10" fill="none" xmlns="http://www.w3.org/2000/svg">
<path fill-rule="evenodd" clip-rule="evenodd" d="M9.08534 0.0446718C8.93593 0.0467662 7.80145 0.0594555 6.56427 0.0728698C4.68431 0.0932582 4.30627 0.0963956 4.26268 0.0919694C4.04033 0.0694017 3.7202 0.0680196 3.45245 0.0884717C2.61779 0.152223 1.87479 0.410499 1.31568 0.831233C0.808722 1.21272 0.43349 1.7421 0.224637 2.37051C0.148088 2.60082 0.0753136 2.88556 0.0645364 2.99691C0.0397517 3.25298 0.0374143 3.53834 0.0582233 3.76784C0.104841 4.28195 0.251102 4.72165 0.505405 5.11219C0.847068 5.6369 1.38594 6.04893 2.10687 6.33669C2.20785 6.377 2.36054 6.43212 2.43747 6.45605C2.46527 6.46469 2.55055 6.49248 2.62699 6.51779C2.86402 6.59628 3.04399 6.64534 3.24097 6.68516C3.352 6.7076 3.39488 6.7124 3.48542 6.71255C3.53772 6.71264 3.57493 6.71582 3.65809 6.72731C4.11817 6.79087 4.56371 6.8192 5.10125 6.81909C5.47648 6.81901 5.76126 6.80783 6.08736 6.7804C6.14213 6.77579 6.19094 6.77202 6.1958 6.77202H6.20466V5.89229V5.01256L6.18677 5.01261C6.17692 5.01263 6.02862 5.00969 5.85722 5.00606L5.54556 4.99947L4.38319 4.92563C3.74388 4.88502 3.20944 4.85004 3.19554 4.8479C3.18165 4.84577 3.14294 4.83377 3.10952 4.82124L3.04877 4.79846L2.99413 4.73911C2.5604 4.26792 2.27981 3.70131 2.21205 3.15984C2.19387 3.01459 2.19394 2.97934 2.21262 2.88485C2.23055 2.7941 2.30887 2.63836 2.39941 2.51341C2.46837 2.41824 2.57695 2.30433 2.65244 2.24796C2.82795 2.11689 3.05167 2.00338 3.30751 1.9156C3.46422 1.86182 3.57422 1.83222 3.68442 1.81419L3.75146 1.80322L5.79615 1.78835C6.92073 1.78017 7.90527 1.77343 7.98403 1.77336L8.12722 1.77326L8.79674 0.910909C9.16498 0.436619 9.46695 0.0465118 9.46778 0.0440062C9.46881 0.0408901 9.45157 0.0396775 9.41313 0.0401609C9.38225 0.0405509 9.23474 0.0425817 9.08534 0.0446718ZM15.3477 2.65202L14.7012 3.1615L14.6894 4.8245C14.6781 6.42431 14.6773 6.48948 14.6694 6.53967C14.6469 6.68194 14.576 6.89727 14.4974 7.06243C14.3895 7.28903 14.2787 7.42633 14.1118 7.54018C14.0301 7.59587 13.924 7.64694 13.8611 7.66075C13.7584 7.68331 13.5389 7.65184 13.335 7.58531C13.0385 7.48859 12.7427 7.31051 12.4848 7.0735C12.4299 7.023 12.4281 7.02002 12.3954 6.92041C12.3609 6.81543 12.337 6.70635 12.3194 6.57487C12.3126 6.52328 12.3085 6.37999 12.2883 5.47892C12.2756 4.9088 12.2651 4.42182 12.2651 4.39675L12.265 4.35118H12.2355H12.2061V4.33634V4.3215L12.0787 4.32101C12.0086 4.32074 11.721 4.31928 11.4396 4.31777C11.1581 4.31626 10.9272 4.31539 10.9264 4.31584C10.9256 4.31629 10.9206 4.50901 10.9153 4.7441L10.9057 5.17155L10.8524 6.01736C10.8129 6.64412 10.7974 6.86921 10.7924 6.88649C10.7888 6.89931 10.7783 6.92928 10.7692 6.95308L10.7526 6.99635L10.7055 7.03961C10.6019 7.13467 10.502 7.21329 10.3909 7.28722C10.0978 7.48227 9.7996 7.59637 9.49385 7.63048C9.38754 7.64234 9.34295 7.638 9.26996 7.60865C9.08445 7.53409 8.90999 7.39377 8.80431 7.23414C8.75176 7.15476 8.69057 7.03912 8.65569 6.95326C8.65024 6.93985 8.64424 6.92888 8.64235 6.92888C8.64046 6.92888 8.63892 7.39656 8.63892 7.96817V9.00746L8.64856 9.01645C8.66481 9.03162 8.76878 9.07765 8.87989 9.11888C8.99398 9.16121 9.20441 9.22155 9.33592 9.24965C9.4016 9.26369 9.5203 9.27312 9.67074 9.27626C10.2302 9.28794 10.7084 9.14687 11.0942 8.85633C11.2021 8.77513 11.3406 8.64414 11.431 8.53783C11.477 8.48365 11.5621 8.37187 11.5941 8.32337C11.6048 8.30725 11.6146 8.29414 11.616 8.29425C11.6174 8.29436 11.6351 8.31678 11.6554 8.34407C11.8843 8.6524 12.1845 8.9061 12.5114 9.06768C12.7856 9.20321 13.0759 9.28021 13.4097 9.30598C13.4913 9.31228 13.5145 9.31256 13.5866 9.30806C13.6322 9.30521 13.6988 9.29908 13.7345 9.29444C13.7702 9.2898 13.8026 9.28704 13.8066 9.28831C13.8256 9.29436 14.1032 9.2247 14.2402 9.1795C14.5362 9.08191 14.808 8.9313 15.0467 8.7327C15.1149 8.676 15.2685 8.5214 15.3266 8.45115C15.7169 7.97866 15.9337 7.35518 15.9716 6.59607C15.9774 6.47907 15.974 6.23522 15.9652 6.14031C15.9596 6.08091 15.961 5.88708 15.9798 4.12224C16.004 1.84519 16.0013 2.14229 15.9975 2.14243C15.9957 2.1425 15.7034 2.37181 15.3477 2.65202ZM3.95767 3.39573C3.60181 3.86592 3.30977 4.25289 3.30871 4.25568C3.30722 4.2596 3.4838 4.26139 4.08504 4.26357C4.51308 4.26512 5.21533 4.26765 5.64559 4.2692L6.42787 4.27201V6.73456V9.1971H7.43442H8.44098V6.74022V4.28334H9.63826H10.8355L11.4936 3.41842C11.8555 2.94271 12.1527 2.55065 12.154 2.54717C12.1562 2.54157 11.7258 2.54085 8.38056 2.54085H4.6047L3.95767 3.39573Z" fill="#D60F30"/>
<path fill-rule="evenodd" clip-rule="evenodd" d="M3.95702 3.3921C3.60115 3.86228 3.30912 4.24926 3.30805 4.25205C3.30656 4.25597 3.48314 4.25776 4.08438 4.25994C4.51243 4.26148 5.23152 4.26401 5.66178 4.26556L6.42722 4.27262V6.73092V9.1977L7.45061 9.20194H8.45716V6.73659V4.27971H9.65445H10.8517L11.5098 3.41479C11.8717 2.93908 12.1689 2.54701 12.1702 2.54354C12.1723 2.53793 11.7419 2.53721 8.39675 2.53721H4.60405L3.95702 3.3921Z" fill="#A52437"/>
<path d="M3.06457 4.76115C0.811482 4.61665 0.109597 3.45342 0.0402901 2.88987C-0.463757 6.49717 3.88555 6.99576 6.15606 6.66602V4.92916L3.06457 4.76115Z" fill="#A52437"/>
<path d="M3.71332 1.74736C2.56913 1.94226 2.20608 2.55664 2.16757 2.83947C2.16757 0.979532 3.5509 0.20792 4.24257 0.0546051L9.41745 0L8.07753 1.71586L3.71332 1.74736Z" fill="black" fill-opacity="0.2"/>
<path d="M15.8903 5.98346C15.5038 7.31079 14.3151 7.58661 13.7691 7.55861C14.3554 7.399 14.5636 6.69823 14.6092 6.3678L14.6239 4.72965L14.6344 3.09149L15.9323 2.0834L15.8903 5.98346Z" fill="#A52437"/>
<path d="M10.7238 6.86765C9.9022 7.68588 8.96173 7.57961 8.59 7.4242V8.88383C8.69249 8.95944 9.12555 9.09035 9.32927 9.14006C10.4096 8.81243 10.7063 7.4844 10.7238 6.86765Z" fill="#A52437"/>
<path d="M8.59 7.41999L8.5921 6.82564C8.77523 7.29944 9.15005 7.4893 9.31456 7.525C9.04742 7.56365 8.72021 7.4711 8.59 7.41999Z" fill="#900000"/>
</svg>
